# xmcd
# 
# Track frame offsets:
#     150
#     15994
#     35768
#     54179
#     64452
#     86600
#     99545
#     120606
# 
# Disc length: 1870
# 
# Revision: 0
# Processed by: cddbd v1.5.2PL0 Copyright (c) Steve Scherf et al.
# Submitted via: fre:ac v1.0.27
# 
DISCID=61074c08
DTITLE=Marty Thomas - Marth Thomas
DYEAR=0
DGENRE=Blues
TTITLE0=One Night Only
TTITLE1=Lead Me Not (into Temtation)
TTITLE2=Just Had To Hear Your Voice
TTITLE3=Lost in the Wilderness
TTITLE4=Feels Like Home
TTITLE5=You Say You Will
TTITLE6=Love Is On The Way
TTITLE7=True Colors
EXTD=
EXTT0=
EXTT1=
EXTT2=
EXTT3=
EXTT4=
EXTT5=
EXTT6=
EXTT7=
PLAYORDER=
